<svg height="438pt" viewBox="0 0 438.85343 438" width="438pt" xmlns="http://www.w3.org/2000/svg"><path d="m429.710938 174.140625h-420.574219l210.289062-164.570313zm0 0" fill="#4b6981"/><path d="m429.710938 183.277344h-420.570313c-3.902344 0-7.375-2.472656-8.640625-6.160156-1.269531-3.6875-.0625-7.773438 3.007812-10.175782l210.285157-164.574218c3.304687-2.585938 7.964843-2.585938 11.265625 0l210.289062 164.574218c3.070313 2.402344 4.277344 6.488282 3.007813 10.175782s-4.742188 6.160156-8.644531 6.160156zm-394.050782-18.285156h367.535156l-183.769531-143.820313zm0 0" fill="#2a3d4f"/><path d="m255.996094 102.804688c0 20.199218-16.375 36.570312-36.570313 36.570312-20.199219 0-36.574219-16.371094-36.574219-36.570312 0-20.199219 16.375-36.570313 36.574219-36.570313 20.195313 0 36.570313 16.371094 36.570313 36.570313zm0 0" fill="#ffd766"/><path d="m219.425781 148.519531c-25.203125 0-45.714843-20.507812-45.714843-45.714843 0-25.203126 20.511718-45.710938 45.714843-45.710938 25.207031 0 45.714844 20.507812 45.714844 45.710938 0 25.207031-20.507813 45.714843-45.714844 45.714843zm0-73.140625c-15.125 0-27.425781 12.300782-27.425781 27.425782s12.300781 27.429687 27.425781 27.429687 27.429688-12.304687 27.429688-27.429687-12.304688-27.425782-27.429688-27.425782zm0 0" fill="#2a3d4f"/><path d="m54.851562 174.140625h329.144532v27.429687c0 10.097657-8.1875 18.285157-18.285156 18.285157h-292.574219c-10.097657 0-18.285157-8.1875-18.285157-18.285157zm0 0" fill="#e7e4e1"/><path d="m365.710938 228.992188h-292.570313c-15.125 0-27.429687-12.300782-27.429687-27.425782v-36.574218h347.429687v36.574218c0 15.125-12.304687 27.425782-27.429687 27.425782zm-301.710938-45.714844v18.289062c0 5.042969 4.097656 9.140625 9.140625 9.140625h292.570313c5.046874 0 9.144531-4.097656 9.144531-9.140625v-18.289062zm0 0" fill="#2a3d4f"/><path d="m45.710938 384.425781h347.425781c10.101562 0 18.289062 8.1875 18.289062 18.285157v27.429687h-384v-27.429687c0-10.097657 8.183594-18.285157 18.285157-18.285157zm0 0" fill="#4b6981"/><path d="m420.570312 439.277344h-402.285156v-36.570313c0-15.125 12.300782-27.429687 27.425782-27.429687h347.429687c15.125 0 27.429687 12.304687 27.429687 27.429687zm-384-18.285156h365.714844v-18.285157c0-5.042969-4.097656-9.140625-9.144531-9.140625h-347.429687c-5.042969 0-9.140626 4.097656-9.140626 9.140625zm0 0" fill="#2a3d4f"/><path d="m100.566406 219.855469h36.570313v164.570312h-36.570313zm0 0" fill="#3c96d1"/><path d="m146.285156 393.566406h-54.859375v-182.859375h54.859375zm-36.574218-18.289062h18.289062v-146.285156h-18.289062zm0 0" fill="#2a3d4f"/><path d="m201.136719 219.855469h36.574219v164.570312h-36.574219zm0 0" fill="#3c96d1"/><path d="m246.855469 393.566406h-54.855469v-182.859375h54.855469zm-36.570313-18.289062h18.285156v-146.285156h-18.285156zm0 0" fill="#2a3d4f"/><path d="m301.710938 219.855469h36.570312v164.570312h-36.570312zm0 0" fill="#3c96d1"/><g fill="#2a3d4f"><path d="m347.425781 393.566406h-54.855469v-182.859375h54.855469zm-36.570312-18.289062h18.285156v-146.285156h-18.285156zm0 0"/><path d="m218.300781 124.019531v-3.738281c-4.679687-.476562-8.875-2.335938-12.589843-5.578125l3.734374-4.453125c2.867188 2.492188 5.8125 3.976562 8.855469 4.453125v-9.929687c-3.859375-.921876-6.679687-2.128907-8.472656-3.632813-1.789063-1.5-2.6875-3.726563-2.6875-6.679687 0-2.949219 1.03125-5.363282 3.09375-7.238282 2.066406-1.878906 4.753906-2.902344 8.066406-3.074218v-2.554688h3.273438v2.609375c3.75.269531 7.300781 1.554687 10.644531 3.835937l-3.328125 4.710938c-2.253906-1.605469-4.691406-2.59375-7.316406-2.96875v9.621094h.152343c3.921876.917968 6.804688 2.167968 8.644532 3.734375 1.847656 1.570312 2.765625 3.847656 2.765625 6.835937 0 2.984375-1.054688 5.410156-3.171875 7.289063-2.117188 1.875-4.910156 2.898437-8.390625 3.070312v3.6875zm-3.613281-33.035156c-.867188.765625-1.300781 1.722656-1.300781 2.863281 0 1.144532.339843 2.046875 1.023437 2.710938.679688.667968 1.976563 1.308594 3.890625 1.921875v-8.855469c-1.539062.136719-2.742187.59375-3.613281 1.359375zm10.773438 22.4375c.957031-.78125 1.433593-1.773437 1.433593-2.96875 0-1.191406-.375-2.140625-1.125-2.839844-.753906-.695312-2.152343-1.351562-4.195312-1.96875v9.210938c1.636719-.171875 2.929687-.644531 3.886719-1.433594zm0 0"/></g></svg>